<?xml version="1.0" encoding="utf-8"?>
<!-- Generator: Adobe Illustrator 25.2.0, SVG Export Plug-In . SVG Version: 6.00 Build 0)  -->
<svg version="1.1" id="Layer_1" xmlns="http://www.w3.org/2000/svg" xmlns:xlink="http://www.w3.org/1999/xlink" x="0px" y="0px"
	 viewBox="0 0 439.37 637.8" style="enable-background:new 0 0 439.37 637.8;" xml:space="preserve">
<style type="text/css">
	.st0{fill:#6E6F72;}
	.st1{fill:#034573;}
	.st2{fill:#6A6A6A;}
	.st3{fill:#104168;}
</style>
<g>
	<path class="st0" d="M137.87,277.08c14.77,7.29,24.94,22.5,24.94,40.09c0,24.68-20.01,44.68-44.68,44.68
		c-24.68,0-44.68-20.01-44.68-44.68c0-17.59,10.17-32.8,24.94-40.09c-16.93,7.56-28.74,24.54-28.74,44.28
		c0,26.78,21.71,48.48,48.48,48.48c26.78,0,48.48-21.71,48.48-48.48C166.61,301.62,154.81,284.64,137.87,277.08z"/>
	<g>
		<path class="st1" d="M147.03,348.14v-60.52v0l-17,11.56v58.67C136.46,355.96,142.25,352.59,147.03,348.14z"/>
		<path class="st1" d="M118.13,359.55c2.91,0,5.75-0.3,8.5-0.86v-48.36l-17,11.56v36.79C112.38,359.26,115.22,359.55,118.13,359.55z
			"/>
		<path class="st1" d="M89.23,348.14c4.77,4.46,10.57,7.82,17,9.71v-24.77l-17,11.56V348.14z"/>
	</g>
	<g>
		<path class="st2" d="M180.82,315.11h3.93v16.91h-3.93V315.11z"/>
		<path class="st2" d="M193.4,315.11h3.93v13.73h12.68v3.18H193.4V315.11z"/>
		<path class="st2" d="M215.79,315.11h3.97v7.05l9.37-7.05h5.7l-11.21,7.96l12.59,8.95h-6.33l-10.13-7.44v7.44h-3.97V315.11z"/>
		<path class="st3" d="M241.81,315.11h14.49c2.59,0,3.8,0.92,3.8,3.28v2.06c0,1.64-1.05,2.62-2.92,2.85
			c1.97,0.26,3.05,1.44,3.05,3.24v2.16c0,2.26-1.67,3.31-4.98,3.31h-13.44V315.11z M245.68,317.86v4.03h8.98
			c1.21,0,1.8-0.23,1.8-1.21v-1.61c0-0.98-0.59-1.21-1.8-1.21H245.68z M245.68,324.68v4.29h8.98c1.34,0,1.9-0.26,1.9-1.51v-1.28
			c0-1.25-0.56-1.51-1.9-1.51H245.68z"/>
		<path class="st3" d="M274.17,315.11h3.8l9.7,16.91h-4.42l-2.03-3.7H270.5l-1.97,3.7h-3.93L274.17,315.11z M279.57,325.27
			l-3.64-6.88l-3.77,6.88H279.57z"/>
		<path class="st3" d="M293.08,315.11h2.69l11.9,9.96c0.69,0.56,1.34,1.15,1.93,1.84c-0.1-1.41-0.16-2.39-0.16-2.92v-8.88h3.54
			v16.91h-2.69l-12.42-10.46c-0.49-0.43-0.95-0.85-1.41-1.38c0.13,1.31,0.16,2.2,0.16,2.69v9.14h-3.54V315.11z"/>
		<path class="st3" d="M321.59,315.11h3.97v7.05l9.37-7.05h5.7l-11.21,7.96l12.59,8.95h-6.33l-10.13-7.44v7.44h-3.97V315.11z"/>
	</g>
</g>
</svg>
